<?xml version="1.0" encoding="UTF-8" standalone="no"?><svg xmlns="http://www.w3.org/2000/svg" xmlns:xlink="http://www.w3.org/1999/xlink" clip-rule="evenodd" stroke-miterlimit="10" viewBox="0 0 1024 768"><desc>SVG generated by Keynote</desc><defs></defs><g transform="matrix(1.00, 0.00, -0.00, -1.00, 0.0, 768.0)"><g><clipPath id="clip0x610000caf660"><path d="M 0.0 768.0 L 1024.0 768.0 L 1024.0 0.0 L 0.0 0.0 Z M 0.0 768.0 "></path></clipPath><g clip-path="url(#clip0x610000caf660)"><image xlink:href="../../BE4D2DDB-FBE4-467E-AE38-B34F9028D09E/assets/9397CAD6F20342ACC2646ABBCA758461.jpeg" width="2048.00" height="1536.00" transform="matrix(0.50, 0.00, -0.00, -0.50, 0.0, 768.0)"></image></g></g><image xlink:href="../../0DDEAB52-DC24-4F9C-8CB9-C01EE94BC0E6/assets/B71251726155BEF31A27C291FA60C7C0.png" width="126.00" height="42.00" transform="matrix(1.00, 0.00, -0.00, -1.00, 450.0, 590.0)"></image><text xml:space="preserve" font-family="HelveticaNeue-Bold,Helvetica Neue" font-weight="bold" font-size="39.0" fill="#FEFFFE" transform="matrix(1.00, 0.00, -0.00, -1.00, 452.0, 561.6)">p</text><text xml:space="preserve" font-family="HelveticaNeue-Bold,Helvetica Neue" font-weight="bold" font-size="39.0" fill="#FEFFFE" transform="matrix(1.00, 0.00, -0.00, -1.00, 475.8, 561.6)">a</text><text xml:space="preserve" font-family="HelveticaNeue-Bold,Helvetica Neue" font-weight="bold" font-size="39.0" fill="#FEFFFE" transform="matrix(1.00, 0.00, -0.00, -1.00, 498.2, 561.6)">r</text><text xml:space="preserve" font-family="HelveticaNeue-Bold,Helvetica Neue" font-weight="bold" font-size="39.0" fill="#FEFFFE" transform="matrix(1.00, 0.00, -0.00, -1.00, 512.7, 561.6)">e</text><text xml:space="preserve" font-family="HelveticaNeue-Bold,Helvetica Neue" font-weight="bold" font-size="39.0" fill="#FEFFFE" transform="matrix(1.00, 0.00, -0.00, -1.00, 535.1, 561.6)">n</text><text xml:space="preserve" font-family="HelveticaNeue-Bold,Helvetica Neue" font-weight="bold" font-size="39.0" fill="#FEFFFE" transform="matrix(1.00, 0.00, -0.00, -1.00, 558.3, 561.6)">t</text><text xml:space="preserve" font-family="HelveticaNeue-Bold,Helvetica Neue" font-weight="bold" font-size="39.0" fill="#FEFFFE" transform="matrix(1.00, 0.00, -0.00, -1.00, 572.0, 561.6)"> </text><image xlink:href="../../0DDEAB52-DC24-4F9C-8CB9-C01EE94BC0E6/assets/AE19860BC10E146BCEDD3AF6B7A16AD3.png" width="218.00" height="45.00" transform="matrix(1.00, 0.00, -0.00, -1.00, 403.0, 549.0)"></image><text xml:space="preserve" font-family="HelveticaNeue-Bold,Helvetica Neue" font-weight="bold" font-size="39.0" fill="#FFA63C" transform="matrix(1.00, 0.00, -0.00, -1.00, 407.2, 514.6)">$</text><text xml:space="preserve" font-family="HelveticaNeue-Bold,Helvetica Neue" font-weight="bold" font-size="39.0" fill="#FFA63C" transform="matrix(1.00, 0.00, -0.00, -1.00, 428.9, 514.6)">b</text><text xml:space="preserve" font-family="HelveticaNeue-Bold,Helvetica Neue" font-weight="bold" font-size="39.0" fill="#FFA63C" transform="matrix(1.00, 0.00, -0.00, -1.00, 452.7, 514.6)">r</text><text xml:space="preserve" font-family="HelveticaNeue-Bold,Helvetica Neue" font-weight="bold" font-size="39.0" fill="#FFA63C" transform="matrix(1.00, 0.00, -0.00, -1.00, 467.2, 514.6)">o</text><text xml:space="preserve" font-family="HelveticaNeue-Bold,Helvetica Neue" font-weight="bold" font-size="39.0" fill="#FFA63C" transform="matrix(1.00, 0.00, -0.00, -1.00, 491.1, 514.6)">a</text><text xml:space="preserve" font-family="HelveticaNeue-Bold,Helvetica Neue" font-weight="bold" font-size="39.0" fill="#FFA63C" transform="matrix(1.00, 0.00, -0.00, -1.00, 513.5, 514.6)">d</text><text xml:space="preserve" font-family="HelveticaNeue-Bold,Helvetica Neue" font-weight="bold" font-size="39.0" fill="#FFA63C" transform="matrix(1.00, 0.00, -0.00, -1.00, 537.3, 514.6)">c</text><text xml:space="preserve" font-family="HelveticaNeue-Bold,Helvetica Neue" font-weight="bold" font-size="39.0" fill="#FFA63C" transform="matrix(1.00, 0.00, -0.00, -1.00, 559.7, 514.6)">a</text><text xml:space="preserve" font-family="HelveticaNeue-Bold,Helvetica Neue" font-weight="bold" font-size="39.0" fill="#FFA63C" transform="matrix(1.00, 0.00, -0.00, -1.00, 582.1, 514.6)">s</text><text xml:space="preserve" font-family="HelveticaNeue-Bold,Helvetica Neue" font-weight="bold" font-size="39.0" fill="#FFA63C" transform="matrix(1.00, 0.00, -0.00, -1.00, 603.1, 514.6)">t</text><text xml:space="preserve" font-family="HelveticaNeue-Bold,Helvetica Neue" font-weight="bold" font-size="39.0" fill="#FFA63C" transform="matrix(1.00, 0.00, -0.00, -1.00, 616.8, 514.6)"> </text><image xlink:href="../../0DDEAB52-DC24-4F9C-8CB9-C01EE94BC0E6/assets/41729C4970E7C9D1977AF082D15B4DDF.png" width="28.00" height="29.00" transform="matrix(1.00, 0.00, -0.00, -1.00, 498.0, 443.0)"></image><text xml:space="preserve" font-family="HelveticaNeue-Bold,Helvetica Neue" font-weight="bold" font-size="39.0" fill="#FEFFFE" transform="matrix(1.00, 0.00, -0.00, -1.00, 501.8, 420.6)">v</text><image xlink:href="../../0DDEAB52-DC24-4F9C-8CB9-C01EE94BC0E6/assets/DF2E11101CBD032E472CBDC175EB61B7.png" width="32.00" height="27.00" transform="matrix(1.00, 0.00, -0.00, -1.00, 496.0, 373.0)"></image><text xml:space="preserve" font-family="HelveticaNeue-Bold,Helvetica Neue" font-weight="bold" font-size="46.1" fill="#FEFFFE" transform="matrix(1.00, 0.00, -0.00, -1.00, 498.2, 338.1)">^</text><text xml:space="preserve" font-family="HelveticaNeue-Bold,Helvetica Neue" font-weight="bold" font-size="46.1" fill="#FEFFFE" transform="matrix(1.00, 0.00, -0.00, -1.00, 525.8, 338.1)"> </text><image xlink:href="../../0DDEAB52-DC24-4F9C-8CB9-C01EE94BC0E6/assets/9346CCCB722B4E30F3FFDB18C2518BF4.png" width="130.00" height="51.00" transform="matrix(1.00, 0.00, -0.00, -1.00, 447.0, 322.0)"></image><text xml:space="preserve" font-family="HelveticaNeue-Bold,Helvetica Neue" font-weight="bold" font-size="46.1" fill="#ECAC0F" transform="matrix(1.00, 0.00, -0.00, -1.00, 451.0, 282.1)">$</text><text xml:space="preserve" font-family="HelveticaNeue-Bold,Helvetica Neue" font-weight="bold" font-size="46.1" fill="#ECAC0F" transform="matrix(1.00, 0.00, -0.00, -1.00, 476.7, 282.1)">e</text><text xml:space="preserve" font-family="HelveticaNeue-Bold,Helvetica Neue" font-weight="bold" font-size="46.1" fill="#ECAC0F" transform="matrix(1.00, 0.00, -0.00, -1.00, 503.1, 282.1)">m</text><text xml:space="preserve" font-family="HelveticaNeue-Bold,Helvetica Neue" font-weight="bold" font-size="46.1" fill="#ECAC0F" transform="matrix(1.00, 0.00, -0.00, -1.00, 544.9, 282.1)">i</text><text xml:space="preserve" font-family="HelveticaNeue-Bold,Helvetica Neue" font-weight="bold" font-size="46.1" fill="#ECAC0F" transform="matrix(1.00, 0.00, -0.00, -1.00, 556.7, 282.1)">t</text><text xml:space="preserve" font-family="HelveticaNeue-Bold,Helvetica Neue" font-weight="bold" font-size="46.1" fill="#ECAC0F" transform="matrix(1.00, 0.00, -0.00, -1.00, 573.0, 282.1)"> </text><image xlink:href="../../0DDEAB52-DC24-4F9C-8CB9-C01EE94BC0E6/assets/ECAF71552E973EF556B3856E2DA1F317.png" width="111.00" height="42.00" transform="matrix(1.00, 0.00, -0.00, -1.00, 456.0, 261.0)"></image><text xml:space="preserve" font-family="HelveticaNeue-Bold,Helvetica Neue" font-weight="bold" font-size="46.1" fill="#FEFFFE" transform="matrix(1.00, 0.00, -0.00, -1.00, 459.1, 226.1)">c</text><text xml:space="preserve" font-family="HelveticaNeue-Bold,Helvetica Neue" font-weight="bold" font-size="46.1" fill="#FEFFFE" transform="matrix(1.00, 0.00, -0.00, -1.00, 485.6, 226.1)">h</text><text xml:space="preserve" font-family="HelveticaNeue-Bold,Helvetica Neue" font-weight="bold" font-size="46.1" fill="#FEFFFE" transform="matrix(1.00, 0.00, -0.00, -1.00, 512.9, 226.1)">i</text><text xml:space="preserve" font-family="HelveticaNeue-Bold,Helvetica Neue" font-weight="bold" font-size="46.1" fill="#FEFFFE" transform="matrix(1.00, 0.00, -0.00, -1.00, 524.8, 226.1)">l</text><text xml:space="preserve" font-family="HelveticaNeue-Bold,Helvetica Neue" font-weight="bold" font-size="46.1" fill="#FEFFFE" transform="matrix(1.00, 0.00, -0.00, -1.00, 536.7, 226.1)">d</text><image xlink:href="../../0DDEAB52-DC24-4F9C-8CB9-C01EE94BC0E6/assets/BB957B65BFB0AF37809B62A9FBF147D3.png" width="360.00" height="44.00" transform="matrix(1.00, 0.00, -0.00, -1.00, 333.0, 703.0)"></image><text xml:space="preserve" font-family="HelveticaNeue-Medium,Helvetica Neue" font-size="38.0" fill="#EAEAEA" transform="matrix(1.00, 0.00, -0.00, -1.00, 334.6, 672.8)">P</text><text xml:space="preserve" font-family="HelveticaNeue-Medium,Helvetica Neue" font-size="38.0" fill="#EAEAEA" transform="matrix(1.00, 0.00, -0.00, -1.00, 360.0, 672.8)">o</text><text xml:space="preserve" font-family="HelveticaNeue-Medium,Helvetica Neue" font-size="38.0" fill="#EAEAEA" transform="matrix(1.00, 0.00, -0.00, -1.00, 382.5, 672.8)">o</text><text xml:space="preserve" font-family="HelveticaNeue-Medium,Helvetica Neue" font-size="38.0" fill="#EAEAEA" transform="matrix(1.00, 0.00, -0.00, -1.00, 405.0, 672.8)">r</text><text xml:space="preserve" font-family="HelveticaNeue-Medium,Helvetica Neue" font-size="38.0" fill="#EAEAEA" transform="matrix(1.00, 0.00, -0.00, -1.00, 418.4, 672.8)"> </text><text xml:space="preserve" font-family="HelveticaNeue-Medium,Helvetica Neue" font-size="38.0" fill="#EAEAEA" transform="matrix(1.00, 0.00, -0.00, -1.00, 429.0, 672.8)">m</text><text xml:space="preserve" font-family="HelveticaNeue-Medium,Helvetica Neue" font-size="38.0" fill="#EAEAEA" transform="matrix(1.00, 0.00, -0.00, -1.00, 462.0, 672.8)">a</text><text xml:space="preserve" font-family="HelveticaNeue-Medium,Helvetica Neue" font-size="38.0" fill="#EAEAEA" transform="matrix(1.00, 0.00, -0.00, -1.00, 483.2, 672.8)">n</text><text xml:space="preserve" font-family="HelveticaNeue-Medium,Helvetica Neue" font-size="38.0" fill="#EAEAEA" transform="matrix(1.00, 0.00, -0.00, -1.00, 505.0, 672.8)">’</text><text xml:space="preserve" font-family="HelveticaNeue-Medium,Helvetica Neue" font-size="38.0" fill="#EAEAEA" transform="matrix(1.00, 0.00, -0.00, -1.00, 512.7, 672.8)">s</text><text xml:space="preserve" font-family="HelveticaNeue-Medium,Helvetica Neue" font-size="38.0" fill="#EAEAEA" transform="matrix(1.00, 0.00, -0.00, -1.00, 532.4, 672.8)"> </text><text xml:space="preserve" font-family="HelveticaNeue-Medium,Helvetica Neue" font-size="38.0" fill="#EAEAEA" transform="matrix(1.00, 0.00, -0.00, -1.00, 543.0, 672.8)">p</text><text xml:space="preserve" font-family="HelveticaNeue-Medium,Helvetica Neue" font-size="38.0" fill="#EAEAEA" transform="matrix(1.00, 0.00, -0.00, -1.00, 566.2, 672.8)">u</text><text xml:space="preserve" font-family="HelveticaNeue-Medium,Helvetica Neue" font-size="38.0" fill="#EAEAEA" transform="matrix(1.00, 0.00, -0.00, -1.00, 588.0, 672.8)">b</text><text xml:space="preserve" font-family="HelveticaNeue-Medium,Helvetica Neue" font-size="38.0" fill="#EAEAEA" transform="matrix(1.00, 0.00, -0.00, -1.00, 611.3, 672.8)">/</text><text xml:space="preserve" font-family="HelveticaNeue-Medium,Helvetica Neue" font-size="38.0" fill="#EAEAEA" transform="matrix(1.00, 0.00, -0.00, -1.00, 624.6, 672.8)">s</text><text xml:space="preserve" font-family="HelveticaNeue-Medium,Helvetica Neue" font-size="38.0" fill="#EAEAEA" transform="matrix(1.00, 0.00, -0.00, -1.00, 644.4, 672.8)">u</text><text xml:space="preserve" font-family="HelveticaNeue-Medium,Helvetica Neue" font-size="38.0" fill="#EAEAEA" transform="matrix(1.00, 0.00, -0.00, -1.00, 666.2, 672.8)">b</text></g></svg>