<?xml version="1.0" encoding="UTF-8" standalone="no"?><svg xmlns="http://www.w3.org/2000/svg" xmlns:xlink="http://www.w3.org/1999/xlink" clip-rule="evenodd" stroke-miterlimit="10" viewBox="0 0 1024 768"><desc>SVG generated by Keynote</desc><defs></defs><g transform="matrix(1.00, 0.00, -0.00, -1.00, 0.0, 768.0)"><g><clipPath id="clip0x618000eab100"><path d="M 0.0 768.0 L 1024.0 768.0 L 1024.0 0.0 L 0.0 0.0 Z M 0.0 768.0 "></path></clipPath><g clip-path="url(#clip0x618000eab100)"><image xlink:href="../../BE4D2DDB-FBE4-467E-AE38-B34F9028D09E/assets/9397CAD6F20342ACC2646ABBCA758461.jpeg" width="2048.00" height="1536.00" transform="matrix(0.50, 0.00, -0.00, -0.50, 0.0, 768.0)"></image></g></g><image xlink:href="../../2789A643-8150-4172-B28B-E8213E6004B4/assets/B0C13891BA830864B788777FAAA03EEE.png" width="266.00" height="57.00" transform="matrix(1.00, 0.00, -0.00, -1.00, 379.0, 715.0)"></image><text xml:space="preserve" font-family="HelveticaNeue-Bold,Helvetica Neue" font-weight="bold" font-size="64.0" fill="#FEFFFE" transform="matrix(1.00, 0.00, -0.00, -1.00, 381.6, 665.7)">S</text><text xml:space="preserve" font-family="HelveticaNeue-Bold,Helvetica Neue" font-weight="bold" font-size="64.0" fill="#FEFFFE" transform="matrix(1.00, 0.00, -0.00, -1.00, 423.1, 665.7)">e</text><text xml:space="preserve" font-family="HelveticaNeue-Bold,Helvetica Neue" font-weight="bold" font-size="64.0" fill="#FEFFFE" transform="matrix(1.00, 0.00, -0.00, -1.00, 459.9, 665.7)">r</text><text xml:space="preserve" font-family="HelveticaNeue-Bold,Helvetica Neue" font-weight="bold" font-size="64.0" fill="#FEFFFE" transform="matrix(1.00, 0.00, -0.00, -1.00, 484.8, 665.7)">v</text><text xml:space="preserve" font-family="HelveticaNeue-Bold,Helvetica Neue" font-weight="bold" font-size="64.0" fill="#FEFFFE" transform="matrix(1.00, 0.00, -0.00, -1.00, 518.0, 665.7)">i</text><text xml:space="preserve" font-family="HelveticaNeue-Bold,Helvetica Neue" font-weight="bold" font-size="64.0" fill="#FEFFFE" transform="matrix(1.00, 0.00, -0.00, -1.00, 534.6, 665.7)">c</text><text xml:space="preserve" font-family="HelveticaNeue-Bold,Helvetica Neue" font-weight="bold" font-size="64.0" fill="#FEFFFE" transform="matrix(1.00, 0.00, -0.00, -1.00, 571.3, 665.7)">e</text><text xml:space="preserve" font-family="HelveticaNeue-Bold,Helvetica Neue" font-weight="bold" font-size="64.0" fill="#FEFFFE" transform="matrix(1.00, 0.00, -0.00, -1.00, 608.0, 665.7)">s</text><image xlink:href="../../2789A643-8150-4172-B28B-E8213E6004B4/assets/98CF44BEAC9A36822F62430B6EE5FC78.png" width="20.00" height="19.00" transform="matrix(1.00, 0.00, -0.00, -1.00, 445.0, 615.0)"></image><text xml:space="preserve" font-family="HelveticaNeue-Medium,Helvetica Neue" font-size="28.5" fill="#EAEAEA" transform="matrix(1.00, 0.00, -0.00, -1.00, 447.9, 597.1)">•</text><image xlink:href="../../2789A643-8150-4172-B28B-E8213E6004B4/assets/26ACF8B925B96A6320181DACE497ABDA.png" width="99.00" height="47.00" transform="matrix(1.00, 0.00, -0.00, -1.00, 480.0, 627.0)"></image><text xml:space="preserve" font-family="HelveticaNeue-Medium,Helvetica Neue" font-size="38.0" fill="#EAEAEA" transform="matrix(1.00, 0.00, -0.00, -1.00, 484.1, 593.8)">$</text><text xml:space="preserve" font-family="HelveticaNeue-Medium,Helvetica Neue" font-size="38.0" fill="#EAEAEA" transform="matrix(1.00, 0.00, -0.00, -1.00, 505.3, 593.8)">h</text><text xml:space="preserve" font-family="HelveticaNeue-Medium,Helvetica Neue" font-size="38.0" fill="#EAEAEA" transform="matrix(1.00, 0.00, -0.00, -1.00, 527.1, 593.8)">t</text><text xml:space="preserve" font-family="HelveticaNeue-Medium,Helvetica Neue" font-size="38.0" fill="#EAEAEA" transform="matrix(1.00, 0.00, -0.00, -1.00, 539.7, 593.8)">t</text><text xml:space="preserve" font-family="HelveticaNeue-Medium,Helvetica Neue" font-size="38.0" fill="#EAEAEA" transform="matrix(1.00, 0.00, -0.00, -1.00, 552.4, 593.8)">p</text><image xlink:href="../../2789A643-8150-4172-B28B-E8213E6004B4/assets/559E90B21B5C41400069FB095AF58C15.png" width="501.00" height="246.00" transform="matrix(1.26, 0.00, -0.00, -1.26, 196.7, 538.8)"></image><image xlink:href="../../2789A643-8150-4172-B28B-E8213E6004B4/assets/9FD86C4161B5195E8A197F1AD8890F6C.png" width="779.00" height="38.00" transform="matrix(1.00, 0.00, -0.00, -1.00, 123.0, 142.0)"></image><text xml:space="preserve" font-family="HelveticaNeue-Medium,Helvetica Neue" font-size="28.0" fill="#EAEAEA" transform="matrix(1.00, 0.00, -0.00, -1.00, 125.5, 116.5)">N</text><text xml:space="preserve" font-family="HelveticaNeue-Medium,Helvetica Neue" font-size="28.0" fill="#EAEAEA" transform="matrix(1.00, 0.00, -0.00, -1.00, 145.7, 116.5)">o</text><text xml:space="preserve" font-family="HelveticaNeue-Medium,Helvetica Neue" font-size="28.0" fill="#EAEAEA" transform="matrix(1.00, 0.00, -0.00, -1.00, 162.3, 116.5)">t</text><text xml:space="preserve" font-family="HelveticaNeue-Medium,Helvetica Neue" font-size="28.0" fill="#EAEAEA" transform="matrix(1.00, 0.00, -0.00, -1.00, 171.6, 116.5)">e</text><text xml:space="preserve" font-family="HelveticaNeue-Medium,Helvetica Neue" font-size="28.0" fill="#EAEAEA" transform="matrix(1.00, 0.00, -0.00, -1.00, 187.2, 116.5)">:</text><text xml:space="preserve" font-family="HelveticaNeue-Medium,Helvetica Neue" font-size="28.0" fill="#EAEAEA" transform="matrix(1.00, 0.00, -0.00, -1.00, 195.0, 116.5)"> </text><text xml:space="preserve" font-family="HelveticaNeue-Medium,Helvetica Neue" font-size="28.0" fill="#EAEAEA" transform="matrix(1.00, 0.00, -0.00, -1.00, 202.8, 116.5)">$</text><text xml:space="preserve" font-family="HelveticaNeue-Medium,Helvetica Neue" font-size="28.0" fill="#EAEAEA" transform="matrix(1.00, 0.00, -0.00, -1.00, 218.4, 116.5)">r</text><text xml:space="preserve" font-family="HelveticaNeue-Medium,Helvetica Neue" font-size="28.0" fill="#EAEAEA" transform="matrix(1.00, 0.00, -0.00, -1.00, 227.7, 116.5)">e</text><text xml:space="preserve" font-family="HelveticaNeue-Medium,Helvetica Neue" font-size="28.0" fill="#EAEAEA" transform="matrix(1.00, 0.00, -0.00, -1.00, 243.3, 116.5)">s</text><text xml:space="preserve" font-family="HelveticaNeue-Medium,Helvetica Neue" font-size="28.0" fill="#EAEAEA" transform="matrix(1.00, 0.00, -0.00, -1.00, 257.8, 116.5)">o</text><text xml:space="preserve" font-family="HelveticaNeue-Medium,Helvetica Neue" font-size="28.0" fill="#EAEAEA" transform="matrix(1.00, 0.00, -0.00, -1.00, 274.4, 116.5)">u</text><text xml:space="preserve" font-family="HelveticaNeue-Medium,Helvetica Neue" font-size="28.0" fill="#EAEAEA" transform="matrix(1.00, 0.00, -0.00, -1.00, 290.5, 116.5)">r</text><text xml:space="preserve" font-family="HelveticaNeue-Medium,Helvetica Neue" font-size="28.0" fill="#EAEAEA" transform="matrix(1.00, 0.00, -0.00, -1.00, 299.8, 116.5)">c</text><text xml:space="preserve" font-family="HelveticaNeue-Medium,Helvetica Neue" font-size="28.0" fill="#EAEAEA" transform="matrix(1.00, 0.00, -0.00, -1.00, 315.4, 116.5)">e</text><text xml:space="preserve" font-family="HelveticaNeue-Medium,Helvetica Neue" font-size="28.0" fill="#EAEAEA" transform="matrix(1.00, 0.00, -0.00, -1.00, 331.0, 116.5)"> </text><text xml:space="preserve" font-family="HelveticaNeue-Medium,Helvetica Neue" font-size="28.0" fill="#EAEAEA" transform="matrix(1.00, 0.00, -0.00, -1.00, 338.8, 116.5)">i</text><text xml:space="preserve" font-family="HelveticaNeue-Medium,Helvetica Neue" font-size="28.0" fill="#EAEAEA" transform="matrix(1.00, 0.00, -0.00, -1.00, 345.5, 116.5)">s</text><text xml:space="preserve" font-family="HelveticaNeue-Medium,Helvetica Neue" font-size="28.0" fill="#EAEAEA" transform="matrix(1.00, 0.00, -0.00, -1.00, 360.0, 116.5)"> </text><text xml:space="preserve" font-family="HelveticaNeue-Medium,Helvetica Neue" font-size="28.0" fill="#EAEAEA" transform="matrix(1.00, 0.00, -0.00, -1.00, 367.8, 116.5)">a</text><text xml:space="preserve" font-family="HelveticaNeue-Medium,Helvetica Neue" font-size="28.0" fill="#EAEAEA" transform="matrix(1.00, 0.00, -0.00, -1.00, 383.4, 116.5)"> </text><text xml:space="preserve" font-family="HelveticaNeue-Medium,Helvetica Neue" font-size="28.0" fill="#EAEAEA" transform="matrix(1.00, 0.00, -0.00, -1.00, 391.2, 116.5)">g</text><text xml:space="preserve" font-family="HelveticaNeue-Medium,Helvetica Neue" font-size="28.0" fill="#EAEAEA" transform="matrix(1.00, 0.00, -0.00, -1.00, 407.8, 116.5)">o</text><text xml:space="preserve" font-family="HelveticaNeue-Medium,Helvetica Neue" font-size="28.0" fill="#EAEAEA" transform="matrix(1.00, 0.00, -0.00, -1.00, 424.4, 116.5)">o</text><text xml:space="preserve" font-family="HelveticaNeue-Medium,Helvetica Neue" font-size="28.0" fill="#EAEAEA" transform="matrix(1.00, 0.00, -0.00, -1.00, 441.0, 116.5)">d</text><text xml:space="preserve" font-family="HelveticaNeue-Medium,Helvetica Neue" font-size="28.0" fill="#EAEAEA" transform="matrix(1.00, 0.00, -0.00, -1.00, 458.1, 116.5)"> </text><text xml:space="preserve" font-family="HelveticaNeue-Medium,Helvetica Neue" font-size="28.0" fill="#EAEAEA" transform="matrix(1.00, 0.00, -0.00, -1.00, 465.9, 116.5)">s</text><text xml:space="preserve" font-family="HelveticaNeue-Medium,Helvetica Neue" font-size="28.0" fill="#EAEAEA" transform="matrix(1.00, 0.00, -0.00, -1.00, 480.4, 116.5)">u</text><text xml:space="preserve" font-family="HelveticaNeue-Medium,Helvetica Neue" font-size="28.0" fill="#EAEAEA" transform="matrix(1.00, 0.00, -0.00, -1.00, 496.5, 116.5)">b</text><text xml:space="preserve" font-family="HelveticaNeue-Medium,Helvetica Neue" font-size="28.0" fill="#EAEAEA" transform="matrix(1.00, 0.00, -0.00, -1.00, 513.6, 116.5)">s</text><text xml:space="preserve" font-family="HelveticaNeue-Medium,Helvetica Neue" font-size="28.0" fill="#EAEAEA" transform="matrix(1.00, 0.00, -0.00, -1.00, 528.1, 116.5)">t</text><text xml:space="preserve" font-family="HelveticaNeue-Medium,Helvetica Neue" font-size="28.0" fill="#EAEAEA" transform="matrix(1.00, 0.00, -0.00, -1.00, 537.4, 116.5)">i</text><text xml:space="preserve" font-family="HelveticaNeue-Medium,Helvetica Neue" font-size="28.0" fill="#EAEAEA" transform="matrix(1.00, 0.00, -0.00, -1.00, 544.2, 116.5)">t</text><text xml:space="preserve" font-family="HelveticaNeue-Medium,Helvetica Neue" font-size="28.0" fill="#EAEAEA" transform="matrix(1.00, 0.00, -0.00, -1.00, 553.5, 116.5)">u</text><text xml:space="preserve" font-family="HelveticaNeue-Medium,Helvetica Neue" font-size="28.0" fill="#EAEAEA" transform="matrix(1.00, 0.00, -0.00, -1.00, 569.6, 116.5)">t</text><text xml:space="preserve" font-family="HelveticaNeue-Medium,Helvetica Neue" font-size="28.0" fill="#EAEAEA" transform="matrix(1.00, 0.00, -0.00, -1.00, 578.9, 116.5)">e</text><text xml:space="preserve" font-family="HelveticaNeue-Medium,Helvetica Neue" font-size="28.0" fill="#EAEAEA" transform="matrix(1.00, 0.00, -0.00, -1.00, 594.5, 116.5)"> </text><text xml:space="preserve" font-family="HelveticaNeue-Medium,Helvetica Neue" font-size="28.0" fill="#EAEAEA" transform="matrix(1.00, 0.00, -0.00, -1.00, 602.3, 116.5)">f</text><text xml:space="preserve" font-family="HelveticaNeue-Medium,Helvetica Neue" font-size="28.0" fill="#EAEAEA" transform="matrix(1.00, 0.00, -0.00, -1.00, 611.1, 116.5)">o</text><text xml:space="preserve" font-family="HelveticaNeue-Medium,Helvetica Neue" font-size="28.0" fill="#EAEAEA" transform="matrix(1.00, 0.00, -0.00, -1.00, 627.7, 116.5)">r</text><text xml:space="preserve" font-family="HelveticaNeue-Medium,Helvetica Neue" font-size="28.0" fill="#EAEAEA" transform="matrix(1.00, 0.00, -0.00, -1.00, 637.5, 116.5)"> </text><text xml:space="preserve" font-family="HelveticaNeue-Medium,Helvetica Neue" font-size="28.0" fill="#EAEAEA" transform="matrix(1.00, 0.00, -0.00, -1.00, 645.3, 116.5)">R</text><text xml:space="preserve" font-family="HelveticaNeue-Medium,Helvetica Neue" font-size="28.0" fill="#EAEAEA" transform="matrix(1.00, 0.00, -0.00, -1.00, 665.0, 116.5)">E</text><text xml:space="preserve" font-family="HelveticaNeue-Medium,Helvetica Neue" font-size="28.0" fill="#EAEAEA" transform="matrix(1.00, 0.00, -0.00, -1.00, 682.7, 116.5)">S</text><text xml:space="preserve" font-family="HelveticaNeue-Medium,Helvetica Neue" font-size="28.0" fill="#EAEAEA" transform="matrix(1.00, 0.00, -0.00, -1.00, 700.8, 116.5)">T</text><text xml:space="preserve" font-family="HelveticaNeue-Medium,Helvetica Neue" font-size="28.0" fill="#EAEAEA" transform="matrix(1.00, 0.00, -0.00, -1.00, 717.4, 116.5)">f</text><text xml:space="preserve" font-family="HelveticaNeue-Medium,Helvetica Neue" font-size="28.0" fill="#EAEAEA" transform="matrix(1.00, 0.00, -0.00, -1.00, 726.2, 116.5)">u</text><text xml:space="preserve" font-family="HelveticaNeue-Medium,Helvetica Neue" font-size="28.0" fill="#EAEAEA" transform="matrix(1.00, 0.00, -0.00, -1.00, 742.3, 116.5)">l</text><text xml:space="preserve" font-family="HelveticaNeue-Medium,Helvetica Neue" font-size="28.0" fill="#EAEAEA" transform="matrix(1.00, 0.00, -0.00, -1.00, 749.1, 116.5)"> </text><text xml:space="preserve" font-family="HelveticaNeue-Medium,Helvetica Neue" font-size="28.0" fill="#EAEAEA" transform="matrix(1.00, 0.00, -0.00, -1.00, 756.8, 116.5)">s</text><text xml:space="preserve" font-family="HelveticaNeue-Medium,Helvetica Neue" font-size="28.0" fill="#EAEAEA" transform="matrix(1.00, 0.00, -0.00, -1.00, 771.4, 116.5)">e</text><text xml:space="preserve" font-family="HelveticaNeue-Medium,Helvetica Neue" font-size="28.0" fill="#EAEAEA" transform="matrix(1.00, 0.00, -0.00, -1.00, 786.9, 116.5)">r</text><text xml:space="preserve" font-family="HelveticaNeue-Medium,Helvetica Neue" font-size="28.0" fill="#EAEAEA" transform="matrix(1.00, 0.00, -0.00, -1.00, 796.8, 116.5)">v</text><text xml:space="preserve" font-family="HelveticaNeue-Medium,Helvetica Neue" font-size="28.0" fill="#EAEAEA" transform="matrix(1.00, 0.00, -0.00, -1.00, 811.3, 116.5)">e</text><text xml:space="preserve" font-family="HelveticaNeue-Medium,Helvetica Neue" font-size="28.0" fill="#EAEAEA" transform="matrix(1.00, 0.00, -0.00, -1.00, 826.9, 116.5)">r</text><text xml:space="preserve" font-family="HelveticaNeue-Medium,Helvetica Neue" font-size="28.0" fill="#EAEAEA" transform="matrix(1.00, 0.00, -0.00, -1.00, 836.8, 116.5)"> </text><text xml:space="preserve" font-family="HelveticaNeue-Medium,Helvetica Neue" font-size="28.0" fill="#EAEAEA" transform="matrix(1.00, 0.00, -0.00, -1.00, 844.5, 116.5)">s</text><text xml:space="preserve" font-family="HelveticaNeue-Medium,Helvetica Neue" font-size="28.0" fill="#EAEAEA" transform="matrix(1.00, 0.00, -0.00, -1.00, 859.1, 116.5)">i</text><text xml:space="preserve" font-family="HelveticaNeue-Medium,Helvetica Neue" font-size="28.0" fill="#EAEAEA" transform="matrix(1.00, 0.00, -0.00, -1.00, 865.8, 116.5)">d</text><text xml:space="preserve" font-family="HelveticaNeue-Medium,Helvetica Neue" font-size="28.0" fill="#EAEAEA" transform="matrix(1.00, 0.00, -0.00, -1.00, 882.9, 116.5)">e</text><text xml:space="preserve" font-family="HelveticaNeue-Medium,Helvetica Neue" font-size="28.0" fill="#EAEAEA" transform="matrix(1.00, 0.00, -0.00, -1.00, 898.5, 116.5)"> </text></g></svg>